<svg xmlns="http://www.w3.org/2000/svg" viewBox="0 0 64 32" width="64" height="32">
  <rect width="64" height="32" fill="#1a1a2e" rx="2"/>
  
  <!-- Left eye - normal -->
  <ellipse cx="20" cy="14" rx="7" ry="8" fill="#fff"/>
  <ellipse cx="20" cy="15" rx="5.5" ry="6.5" fill="#ffa07a"/>
  <ellipse cx="20" cy="16" rx="4.5" ry="5" fill="#ff8c69"/>
  <circle cx="20" cy="15" r="3" fill="#111"/>
  <circle cx="18" cy="13" r="1.5" fill="#fff"/>
  
  <!-- Right eye - squinting -->
  <ellipse cx="44" cy="14" rx="7" ry="8" fill="#fff">
    <animate attributeName="ry" values="8;3;8" dur="2s" repeatCount="indefinite"/>
  </ellipse>
  <ellipse cx="44" cy="15" rx="5.5" ry="6.5" fill="#ffa07a">
    <animate attributeName="ry" values="6.5;2;6.5" dur="2s" repeatCount="indefinite"/>
  </ellipse>
  <ellipse cx="44" cy="16" rx="4.5" ry="5" fill="#ff8c69">
    <animate attributeName="ry" values="5;1.5;5" dur="2s" repeatCount="indefinite"/>
  </ellipse>
  <circle cx="44" cy="15" r="3" fill="#111">
    <animate attributeName="r" values="3;1.5;3" dur="2s" repeatCount="indefinite"/>
  </circle>
  <circle cx="42" cy="13" r="1.5" fill="#fff"/>
  
  <!-- Confused eyebrows - one raised, one normal -->
  <path d="M14 9 Q18 8 22 9" stroke="#ffa07a" stroke-width="1.5" fill="none" stroke-linecap="round"/>
  <path d="M42 6 Q46 5 50 6" stroke="#ffa07a" stroke-width="1.5" fill="none" stroke-linecap="round">
    <animate attributeName="d" values="M42 6 Q46 5 50 6;M42 7 Q46 5 50 7;M42 6 Q46 5 50 6" dur="2s" repeatCount="indefinite"/>
  </path>
  
  <!-- Question mark bobbing -->
  <g opacity="0.7">
    <animateTransform attributeName="transform" type="translate" values="0,0;0,-2;0,0" dur="1.5s" repeatCount="indefinite"/>
    <path d="M54 18 Q54 15 56 15 Q58 15 58 17 Q58 19 56 19 L56 21" stroke="#ffa07a" stroke-width="1.2" fill="none" stroke-linecap="round"/>
    <circle cx="56" cy="23" r="0.8" fill="#ffa07a"/>
  </g>
  
  <!-- Wavy mouth -->
  <path d="M26 25 Q32 24 38 25" stroke="#ffa07a" stroke-width="1" fill="none" stroke-linecap="round"/>
</svg>
