<svg xmlns="http://www.w3.org/2000/svg" viewBox="0 0 64 32" width="64" height="32">
  <rect width="64" height="32" fill="#1a1a2e" rx="2"/>
  
  <!-- Left eye - big sparkly kawaii -->
  <ellipse cx="20" cy="13" rx="8" ry="9" fill="#fff">
    <!-- Gentle blink every 3 seconds -->
    <animate attributeName="ry" values="9;0.5;9" dur="0.3s" begin="0s;3s" fill="freeze"/>
  </ellipse>
  <ellipse cx="20" cy="14" rx="6" ry="7" fill="#4a9eff">
    <animate attributeName="ry" values="7;0.3;7" dur="0.3s" begin="0s;3s" fill="freeze"/>
  </ellipse>
  <ellipse cx="20" cy="16" rx="5" ry="4" fill="#2d6bc4">
    <animate attributeName="ry" values="4;0.2;4" dur="0.3s" begin="0s;3s" fill="freeze"/>
  </ellipse>
  <circle cx="20" cy="13" r="3.5" fill="#111">
    <animate attributeName="r" values="3.5;0.2;3.5" dur="0.3s" begin="0s;3s" fill="freeze"/>
  </circle>
  
  <!-- Sparkle highlights with rotation -->
  <circle cx="17" cy="10" r="2" fill="#fff">
    <animate attributeName="opacity" values="1;0.3;1;0.3;1" dur="2s" repeatCount="indefinite"/>
  </circle>
  <circle cx="23" cy="14" r="1" fill="#fff" opacity="0.8">
    <animate attributeName="opacity" values="0.8;0.2;0.8;0.2;0.8" dur="2s" begin="0.5s" repeatCount="indefinite"/>
  </circle>
  
  <!-- Right eye -->
  <ellipse cx="44" cy="13" rx="8" ry="9" fill="#fff">
    <animate attributeName="ry" values="9;0.5;9" dur="0.3s" begin="0s;3s" fill="freeze"/>
  </ellipse>
  <ellipse cx="44" cy="14" rx="6" ry="7" fill="#4a9eff">
    <animate attributeName="ry" values="7;0.3;7" dur="0.3s" begin="0s;3s" fill="freeze"/>
  </ellipse>
  <ellipse cx="44" cy="16" rx="5" ry="4" fill="#2d6bc4">
    <animate attributeName="ry" values="4;0.2;4" dur="0.3s" begin="0s;3s" fill="freeze"/>
  </ellipse>
  <circle cx="44" cy="13" r="3.5" fill="#111">
    <animate attributeName="r" values="3.5;0.2;3.5" dur="0.3s" begin="0s;3s" fill="freeze"/>
  </circle>
  <circle cx="41" cy="10" r="2" fill="#fff">
    <animate attributeName="opacity" values="1;0.3;1;0.3;1" dur="2s" repeatCount="indefinite"/>
  </circle>
  <circle cx="47" cy="14" r="1" fill="#fff" opacity="0.8">
    <animate attributeName="opacity" values="0.8;0.2;0.8;0.2;0.8" dur="2s" begin="0.5s" repeatCount="indefinite"/>
  </circle>
  
  <!-- Blush -->
  <ellipse cx="12" cy="20" rx="4" ry="2" fill="#ff6b9d" opacity="0.4"/>
  <ellipse cx="52" cy="20" rx="4" ry="2" fill="#ff6b9d" opacity="0.4"/>
  
  <!-- Cat mouth -->
  <path d="M28 24 Q30 22 32 24 Q34 22 36 24" stroke="#fff" stroke-width="1" fill="none" stroke-linecap="round"/>
</svg>
