<svg xmlns="http://www.w3.org/2000/svg" viewBox="0 0 64 32" width="64" height="32">
  <rect width="64" height="32" fill="#1a1a2e" rx="2"/>
  
  <!-- Left eye - droopy -->
  <ellipse cx="20" cy="15" rx="7" ry="8" fill="#fff"/>
  <ellipse cx="20" cy="16" rx="5" ry="6" fill="#6495ed"/>
  <ellipse cx="20" cy="17" rx="4" ry="4" fill="#4169b1"/>
  <circle cx="20" cy="16" r="3" fill="#111"/>
  <circle cx="18" cy="14" r="1.5" fill="#fff"/>
  
  <!-- Tear drop animation -->
  <ellipse cx="16" cy="21" rx="1.5" ry="2" fill="#4a9eff" opacity="0.8">
    <animate attributeName="cy" values="21;27;21" dur="3s" repeatCount="indefinite"/>
    <animate attributeName="opacity" values="0.8;0;0.8" dur="3s" repeatCount="indefinite"/>
  </ellipse>
  
  <!-- Right eye - droopy -->
  <ellipse cx="44" cy="15" rx="7" ry="8" fill="#fff"/>
  <ellipse cx="44" cy="16" rx="5" ry="6" fill="#6495ed"/>
  <ellipse cx="44" cy="17" rx="4" ry="4" fill="#4169b1"/>
  <circle cx="44" cy="16" r="3" fill="#111"/>
  <circle cx="42" cy="14" r="1.5" fill="#fff"/>
  
  <!-- Tear drop animation -->
  <ellipse cx="48" cy="21" rx="1.5" ry="2" fill="#4a9eff" opacity="0.8">
    <animate attributeName="cy" values="21;27;21" dur="3s" begin="0.5s" repeatCount="indefinite"/>
    <animate attributeName="opacity" values="0.8;0;0.8" dur="3s" begin="0.5s" repeatCount="indefinite"/>
  </ellipse>
  
  <!-- Sad eyebrows -->
  <path d="M14 8 Q18 6 22 8" stroke="#8b9dc3" stroke-width="1.5" fill="none" stroke-linecap="round"/>
  <path d="M42 8 Q46 6 50 8" stroke="#8b9dc3" stroke-width="1.5" fill="none" stroke-linecap="round"/>
  
  <!-- Frown -->
  <path d="M26 26 Q32 24 38 26" stroke="#8b9dc3" stroke-width="1" fill="none" stroke-linecap="round"/>
</svg>
